<svg width="61" height="61" viewBox="0 0 61 61" fill="none" xmlns="http://www.w3.org/2000/svg">
<g filter="url(#filter0_ddd_104_4019)">
<path d="M50.2656 29.2695C50.2628 29.5527 50.148 29.8233 49.9464 30.0221C49.7509 30.212 49.4892 30.3183 49.2167 30.3186H31.3162V48.2215C31.3159 48.4941 31.2096 48.7558 31.0198 48.9513C30.8222 49.1547 30.5508 49.2695 30.2673 49.2695C29.9837 49.2695 29.7123 49.1547 29.5148 48.9513C29.3249 48.7558 29.2186 48.4941 29.2183 48.2215V30.3186H11.3178C11.0396 30.313 10.7726 30.2078 10.5653 30.0221C10.1657 29.6 10.1657 28.9391 10.5653 28.5169C10.7726 28.3312 11.0396 28.226 11.3178 28.2204H29.2183V10.3175C29.2186 10.045 29.3249 9.78327 29.5148 9.58775C29.7123 9.38432 29.9837 9.26953 30.2673 9.26953C30.5508 9.26953 30.8222 9.38432 31.0198 9.58775C31.2096 9.78327 31.3159 10.045 31.3162 10.3175V28.2204H49.2167C49.4892 28.2207 49.7509 28.3271 49.9464 28.5169C50.148 28.7158 50.2628 28.9863 50.2656 29.2695Z" fill="#494949"/>
</g>
<defs>
<filter id="filter0_ddd_104_4019" x="0.265625" y="0.269531" width="60" height="60" filterUnits="userSpaceOnUse" color-interpolation-filters="sRGB">
<feFlood flood-opacity="0" result="BackgroundImageFix"/>
<feColorMatrix in="SourceAlpha" type="matrix" values="0 0 0 0 0 0 0 0 0 0 0 0 0 0 0 0 0 0 127 0" result="hardAlpha"/>
<feMorphology radius="1" operator="erode" in="SourceAlpha" result="effect1_dropShadow_104_4019"/>
<feOffset dy="2"/>
<feGaussianBlur stdDeviation="2"/>
<feColorMatrix type="matrix" values="0 0 0 0 0 0 0 0 0 0 0 0 0 0 0 0 0 0 0.2 0"/>
<feBlend mode="normal" in2="BackgroundImageFix" result="effect1_dropShadow_104_4019"/>
<feColorMatrix in="SourceAlpha" type="matrix" values="0 0 0 0 0 0 0 0 0 0 0 0 0 0 0 0 0 0 127 0" result="hardAlpha"/>
<feOffset dy="4"/>
<feGaussianBlur stdDeviation="2.5"/>
<feColorMatrix type="matrix" values="0 0 0 0 0 0 0 0 0 0 0 0 0 0 0 0 0 0 0.14 0"/>
<feBlend mode="normal" in2="effect1_dropShadow_104_4019" result="effect2_dropShadow_104_4019"/>
<feColorMatrix in="SourceAlpha" type="matrix" values="0 0 0 0 0 0 0 0 0 0 0 0 0 0 0 0 0 0 127 0" result="hardAlpha"/>
<feOffset dy="1"/>
<feGaussianBlur stdDeviation="5"/>
<feColorMatrix type="matrix" values="0 0 0 0 0 0 0 0 0 0 0 0 0 0 0 0 0 0 0.12 0"/>
<feBlend mode="normal" in2="effect2_dropShadow_104_4019" result="effect3_dropShadow_104_4019"/>
<feBlend mode="normal" in="SourceGraphic" in2="effect3_dropShadow_104_4019" result="shape"/>
</filter>
</defs>
</svg>
