<svg width="13" height="14" viewBox="0 0 13 14" fill="none" xmlns="http://www.w3.org/2000/svg">
<path d="M11.9802 2.58039V11.4196C11.9783 11.8381 11.8179 12.2389 11.534 12.5348C11.2518 12.8334 10.8663 13.001 10.4643 13H5.6148C5.21337 13 4.82847 12.8333 4.54523 12.5367C4.26198 12.2401 4.10374 11.8381 4.10548 11.4196V8.8951H4.70921V11.4196C4.70714 11.6747 4.80143 11.9205 4.9717 12.1038C5.14561 12.2851 5.38199 12.3861 5.62793 12.3843H10.4774C10.7188 12.3843 10.9501 12.2839 11.1201 12.1053C11.2901 11.9268 11.3848 11.6849 11.383 11.4333V2.58039C11.3848 2.32881 11.2901 2.08691 11.1201 1.90837C10.9501 1.72983 10.7188 1.62942 10.4774 1.62942H5.6148C5.36886 1.62758 5.13249 1.72862 4.95858 1.90992C4.7883 2.09319 4.69401 2.33894 4.69609 2.59407V5.1049H4.10548V2.58039C4.10374 2.16188 4.26198 1.75988 4.54523 1.4633C4.82847 1.16672 5.21337 1 5.6148 1H10.4643C10.8663 0.998961 11.2518 1.16663 11.534 1.46523C11.8179 1.76108 11.9783 2.16187 11.9802 2.58039Z" fill="#F4F4F4" stroke="#F4F4F4" stroke-width="0.2"/>
<path d="M0.502349 6.94443C0.522623 6.85642 0.565762 6.77594 0.627032 6.71182L0.725466 6.61604L2.33978 4.94671C2.36825 4.91775 2.40163 4.89456 2.43821 4.8783C2.47705 4.86869 2.5175 4.86869 2.55633 4.8783C2.63063 4.88544 2.70023 4.9193 2.7532 4.97408C2.78307 5.00193 2.80565 5.03724 2.81883 5.0767C2.85338 5.15485 2.85338 5.24485 2.81883 5.32299C2.80398 5.36156 2.78164 5.3965 2.7532 5.42562L1.54575 6.67077H6.23776C6.31618 6.67085 6.39149 6.70275 6.44775 6.75971C6.50629 6.81897 6.53932 6.90041 6.53932 6.98548C6.53932 7.07054 6.50629 7.15198 6.44775 7.21125C6.39149 7.26821 6.31618 7.3001 6.23776 7.30019H1.50637L2.7532 8.6206C2.78307 8.64845 2.80565 8.68376 2.81883 8.72322C2.85338 8.80137 2.85338 8.89137 2.81883 8.96951C2.80398 9.00808 2.78164 9.04302 2.7532 9.07213C2.72581 9.10245 2.69215 9.12585 2.65477 9.14055C2.61789 9.14762 2.58009 9.14762 2.54321 9.14055C2.50408 9.14696 2.46422 9.14696 2.42509 9.14055C2.39053 9.12412 2.35934 9.10089 2.33322 9.07213L0.613907 7.27966C0.5737 7.2366 0.542427 7.18536 0.522036 7.12915C0.502667 7.0698 0.495948 7.00676 0.502349 6.94443Z" fill="#F4F4F4"/>
</svg>
