<svg width="12" height="16" viewBox="0 0 12 16" fill="none" xmlns="http://www.w3.org/2000/svg">
<path d="M0.5 7.88144C0.500078 7.37399 0.566966 6.86894 0.69879 6.38045V6.21717V6.1418C0.710916 6.10708 0.729321 6.0751 0.753006 6.0476C0.776678 6.01753 0.805222 5.99203 0.837341 5.97224C0.871193 5.96575 0.905896 5.96575 0.939748 5.97224C0.975274 5.96238 1.01265 5.96238 1.04818 5.97224C1.14504 5.97529 1.23367 6.02979 1.28311 6.11668C1.30699 6.18784 1.30699 6.26534 1.28311 6.33649L1.21685 6.54374C0.824336 8.03261 1.1182 9.62711 2.01201 10.8583C2.45707 11.4611 3.02763 11.9508 3.68065 12.2902C4.33627 12.6274 5.05796 12.8015 5.78903 12.7989C6.19612 12.7992 6.60138 12.7422 6.99382 12.6293L5.80108 11.6496C5.74834 11.6122 5.70995 11.5566 5.69264 11.4926C5.67439 11.4291 5.67439 11.3614 5.69264 11.2979C5.71873 11.2362 5.766 11.1869 5.82517 11.1598C5.88563 11.1377 5.95146 11.1377 6.01191 11.1598C6.04678 11.1701 6.07947 11.1871 6.1083 11.21L7.91548 12.5917C7.94567 12.6149 7.97039 12.6449 7.98777 12.6796C8.00855 12.7113 8.02101 12.7481 8.02391 12.7863C8.03284 12.8235 8.03284 12.8623 8.02391 12.8994C8.01614 12.9354 8.00183 12.9695 7.98175 12.9999L6.65648 14.884C6.61333 14.9455 6.54816 14.9863 6.47576 14.997C6.40189 15.0093 6.32632 14.9913 6.26492 14.9468C6.20588 14.9018 6.16678 14.8338 6.15649 14.7584C6.14402 14.6813 6.16135 14.6023 6.20468 14.5385L7.12635 13.1946C6.7001 13.3145 6.26064 13.3757 5.81915 13.3767C4.41384 13.3867 3.06262 12.8126 2.06438 11.7813C1.06614 10.75 0.503172 9.34658 0.5 7.88144Z" fill="#F4F4F4" stroke="#F4F4F4" stroke-width="0.2"/>
<path d="M11.3431 8.11935C11.343 8.62681 11.2761 9.13185 11.1443 9.62034L11.1142 9.78363V9.85899C11.1021 9.89372 11.0837 9.9257 11.06 9.95319C11.0363 9.98326 11.0078 10.0088 10.9756 10.0286H10.8732C10.8374 10.0357 10.8006 10.0357 10.7648 10.0286C10.6789 10.0157 10.6034 9.96244 10.56 9.88411C10.5361 9.81296 10.5361 9.73546 10.56 9.6643L10.6263 9.45705C11.0337 7.96566 10.7442 6.36134 9.845 5.12614C8.94575 3.89094 7.54146 3.16882 6.05408 3.17676C5.64696 3.17605 5.24165 3.2331 4.84929 3.34633L6.04203 4.35118C6.09477 4.38858 6.13316 4.44418 6.15046 4.50818C6.16837 4.57174 6.16837 4.63932 6.15046 4.70287C6.12438 4.76456 6.07711 4.81384 6.01794 4.84104C5.95748 4.86306 5.89165 4.86306 5.83119 4.84104C5.79684 4.82941 5.76435 4.81247 5.73481 4.7908L3.92763 3.40913C3.89744 3.38593 3.87272 3.35586 3.85534 3.32121C3.83706 3.28826 3.8248 3.25206 3.81919 3.21445C3.81027 3.17734 3.81027 3.13851 3.81919 3.1014C3.82697 3.06541 3.84128 3.0313 3.86136 3.00092L5.18663 1.11683C5.22978 1.05528 5.29495 1.01451 5.36735 1.00378C5.44122 0.991467 5.51679 1.00948 5.57819 1.05403C5.63723 1.09901 5.67633 1.16696 5.68662 1.24244C5.69909 1.31947 5.68176 1.39851 5.63843 1.46225L4.71676 2.80623C5.14301 2.68633 5.58247 2.6251 6.02396 2.6241C7.42927 2.61407 8.78049 3.1882 9.77873 4.21949C10.777 5.25077 11.3399 6.65421 11.3431 8.11935Z" fill="#F4F4F4" stroke="#F4F4F4" stroke-width="0.2"/>
</svg>
