<svg width="14" height="14" viewBox="0 0 14 14" fill="none" xmlns="http://www.w3.org/2000/svg">
<path fill-rule="evenodd" clip-rule="evenodd" d="M6.77381 13.9926H7.60877C7.76219 14.013 7.91806 13.991 8.06072 13.9287C8.19772 13.873 8.32081 13.7856 8.42075 13.6731C8.52469 13.5671 8.60566 13.4391 8.65822 13.2978C8.71633 13.1566 8.74505 13.0042 8.74248 12.8506V12.1079C9.04008 12.0173 9.32766 11.8941 9.60042 11.7405L10.1137 12.2995C10.3185 12.5082 10.5932 12.6256 10.8797 12.627C11.1659 12.6248 11.4404 12.5075 11.6457 12.2995L12.2279 11.6926C12.3333 11.5863 12.4168 11.4585 12.473 11.3172C12.528 11.1779 12.5567 11.0287 12.5573 10.878C12.5559 10.7274 12.5273 10.5783 12.473 10.4388C12.4146 10.301 12.3314 10.1763 12.2279 10.0714L11.7223 9.52833C11.8754 9.2299 12.0011 8.91705 12.0976 8.59395H12.8024C13.0983 8.59617 13.3824 8.47352 13.5902 8.2539C13.7979 8.03428 13.9117 7.73637 13.9055 7.42797V6.56546C13.908 6.41185 13.8793 6.25942 13.8212 6.11824C13.7678 5.97306 13.6841 5.8421 13.5761 5.7349C13.472 5.62385 13.3467 5.53679 13.2084 5.47935C13.0689 5.42457 12.9208 5.39748 12.7717 5.39948H12.067C11.9672 5.08918 11.839 4.78965 11.684 4.50503L12.2049 3.946C12.3084 3.84107 12.3917 3.71635 12.45 3.57864C12.5044 3.43629 12.533 3.28464 12.5343 3.13141C12.5329 2.98078 12.5043 2.83176 12.45 2.69217C12.39 2.55305 12.3071 2.426 12.2049 2.31682L11.6304 1.72585C11.4214 1.52482 11.1487 1.4111 10.8644 1.4064C10.5794 1.40802 10.3057 1.52217 10.0983 1.72585L9.56978 2.26092C9.29837 2.10807 9.01367 1.98239 8.7195 1.88557V1.13487C8.71416 0.83399 8.5959 0.547277 8.39011 0.336257C8.1874 0.123184 7.91194 0.00256882 7.62409 0.000837909H6.79679C6.64745 -0.00525867 6.49859 0.0219692 6.36016 0.0806995C6.2218 0.13814 6.09654 0.225201 5.99247 0.336257C5.88445 0.443458 5.80071 0.574412 5.74734 0.719593C5.69163 0.861303 5.66552 1.01376 5.67074 1.16682V1.90953C5.38084 2.00487 5.099 2.12508 4.82812 2.26891L4.30723 1.73384C4.2043 1.6308 4.08509 1.54705 3.95486 1.48626C3.82051 1.43217 3.67756 1.40507 3.53355 1.4064C3.38422 1.40055 3.23541 1.42777 3.09691 1.48626C2.95766 1.54191 2.83205 1.62921 2.72922 1.74182L2.15471 2.34877C2.04684 2.45296 1.96303 2.5813 1.90958 2.72412C1.79723 3.00523 1.79723 3.32148 1.90958 3.6026C1.96515 3.73759 2.04587 3.85974 2.14705 3.96197L2.66028 4.49705C2.51607 4.78574 2.3981 5.08787 2.30791 5.39948H1.60318C1.30866 5.39731 1.0257 5.51887 0.818162 5.73674C0.610622 5.95462 0.495981 6.25045 0.500108 6.55748V7.44394C0.49805 7.74959 0.613605 8.04335 0.820918 8.25949C1.02823 8.47562 1.31 8.59609 1.60318 8.59395H2.30791C2.40762 8.92089 2.53849 9.23659 2.69858 9.53632L2.15471 10.0474C1.95104 10.2593 1.83547 10.5461 1.83298 10.846C1.83709 11.1456 1.95241 11.4319 2.15471 11.6447L2.76753 12.2596C2.97414 12.4655 3.24774 12.5825 3.53355 12.587C3.81874 12.5794 4.09132 12.4629 4.29957 12.2596L4.80514 11.7165C5.07685 11.8731 5.3614 12.004 5.65542 12.1079V12.8426C5.65598 12.9959 5.68458 13.1477 5.73968 13.2898C5.79313 13.4326 5.87694 13.561 5.98481 13.6652C6.08722 13.7726 6.20978 13.8569 6.34484 13.9127C6.48076 13.9708 6.627 13.998 6.77381 13.9926ZM4.92558 10.9347L4.68811 10.799L3.80719 11.6695C3.73086 11.7457 3.62945 11.7885 3.52376 11.7893C3.47326 11.8005 3.42106 11.8005 3.37056 11.7893C3.33226 11.773 3.2962 11.7515 3.26332 11.7254L2.68114 11.1264C2.60384 11.0491 2.55966 10.9426 2.55858 10.8309C2.54709 10.7783 2.54709 10.7238 2.55858 10.6712C2.58027 10.6223 2.6116 10.5788 2.6505 10.5434L3.50078 9.63299L3.37056 9.39341C3.14904 8.99889 2.98875 8.57033 2.89563 8.12361L2.82669 7.84409H1.57041C1.46723 7.84215 1.36862 7.79932 1.29465 7.7243C1.21942 7.64618 1.17794 7.53949 1.17974 7.42881V6.56631C1.17794 6.45562 1.21942 6.34894 1.29465 6.27082C1.36862 6.1958 1.46723 6.15296 1.57041 6.15103H2.81903L2.88031 5.86352C2.98248 5.43739 3.14789 5.03051 3.37056 4.65761L3.60037 4.41004L2.71944 3.4517C2.64464 3.37657 2.60303 3.27248 2.60454 3.1642C2.59443 3.11148 2.59443 3.0572 2.60454 3.00448C2.61431 2.95993 2.62977 2.91696 2.6505 2.8767L3.24034 2.24579C3.32097 2.17263 3.42454 2.13285 3.53142 2.13399C3.63087 2.13966 3.72429 2.18549 3.79187 2.26177L4.70343 3.20413L4.94856 3.06038C5.30825 2.82676 5.70127 2.65424 6.11291 2.54927L6.38102 2.48538V1.15169C6.37891 1.04089 6.4202 0.933983 6.49537 0.855622C6.57053 0.777261 6.67307 0.734213 6.77935 0.736408H7.57601C7.67952 0.736672 7.77871 0.779757 7.85178 0.856201C7.927 0.934325 7.96848 1.04101 7.96668 1.15169V2.48538L8.26543 2.54927C8.68066 2.65043 9.07678 2.82318 9.43744 3.06038L9.66724 3.21212L10.5788 2.25378C10.6574 2.18243 10.758 2.14277 10.8622 2.14197C10.9667 2.1413 11.0678 2.18115 11.1457 2.25378L11.7278 2.86073C11.7997 2.94116 11.8406 3.04635 11.8427 3.15621C11.8392 3.26578 11.7985 3.37049 11.7278 3.4517L10.8163 4.40206L10.9618 4.64963C11.1845 5.02252 11.3499 5.4294 11.4521 5.85554L11.5133 6.14304H12.8309C12.9357 6.14449 13.0354 6.19067 13.1067 6.27082C13.1823 6.34538 13.224 6.44985 13.2216 6.55832V7.39687C13.2234 7.50755 13.1819 7.61423 13.1067 7.69236C13.0327 7.76738 12.9341 7.81021 12.8309 7.81215H11.5517L11.4827 8.09166C11.3826 8.52352 11.2226 8.93784 11.0078 9.32153L10.8622 9.56112L11.7508 10.5115C11.8264 10.586 11.8682 10.6905 11.8657 10.799C11.8675 10.9097 11.826 11.0163 11.7508 11.0945L11.161 11.7014C11.1257 11.7421 11.0808 11.7724 11.0308 11.7893C10.9848 11.8092 10.9349 11.8174 10.8852 11.8132C10.8348 11.8252 10.7824 11.8252 10.732 11.8132C10.6829 11.7907 10.6386 11.7581 10.6018 11.7174L9.69022 10.799L9.45276 10.9347C9.08267 11.1639 8.68276 11.336 8.26543 11.4459L7.99732 11.5177V12.8434C7.99913 12.9541 7.95764 13.0608 7.88242 13.1389C7.80935 13.2154 7.71016 13.2584 7.60665 13.2587H6.77169C6.66541 13.2609 6.56287 13.2179 6.48771 13.1395C6.41254 13.0611 6.37125 12.9542 6.37336 12.8434V11.5177L6.10525 11.4459C5.69036 11.3359 5.29299 11.1638 4.92558 10.9347Z" fill="#F4F4F4"/>
<path fill-rule="evenodd" clip-rule="evenodd" d="M4.55012 8.14753C4.9972 9.26011 6.04376 9.98177 7.20078 9.9753C8.77281 9.96651 10.0427 8.63541 10.0427 6.99646C10.0427 5.79019 9.34488 4.703 8.27532 4.24288C7.20575 3.78276 5.9756 4.04056 5.15965 4.89582C4.3437 5.75108 4.10305 7.03494 4.55012 8.14753ZM5.25743 6.15123C5.58594 5.33707 6.35317 4.80999 7.20036 4.81647C8.34759 4.82955 9.27216 5.80058 9.27628 6.99669C9.27625 7.87995 8.76507 8.67593 7.98174 9.01243C7.19842 9.34893 6.29776 9.15946 5.70089 8.5326C5.10403 7.90575 4.92891 6.96538 5.25743 6.15123Z" fill="#F4F4F4"/>
</svg>
